# xmcd
#
# Track frame offsets:
#	150
#	11672
#	23412
#	36757
#	48909
#	60944
#	73935
#	85520
#	98772
#	112114
#	125628
#	140094
#	152888
#	165131
#	176693
#	188096
#	202970
#	214740
#	228572
#	240922
#	254008
#	266282
#	278565
#	292154
#	306300
#	319390
#	330489
#	343022
#
# Disc length: 4757 seconds
#
# Revision: 0
# Processed by: cddbd v1.5.1PL2 Copyright (c) Steve Scherf et al.
# Submitted via: dBpowerAMP V4.0
#
DISCID=8f12931c
DTITLE=Yodeling Slim Clark - Cowboy And Yodeling Songs
DYEAR=1900
DGENRE=
TTITLE0=When You're Blue Just Yodel
TTITLE1=Big Rock Candy Mountain
TTITLE2=Rocky Mountain Sweetheart
TTITLE3=Rye Whiskey
TTITLE4=Rambling Hobo
TTITLE5=Trail Drive To Missoula
TTITLE6=Saddle In The Sky
TTITLE7=Alpine Love Call
TTITLE8=The Rocky Mountain Yodeler
TTITLE9=She Taught Me To Yodel
TTITLE10=Cowboy's Lullaby
TTITLE11=Remember Me
TTITLE12=My Lulu Gal
TTITLE13=The Last Letter
TTITLE14=Swiss Lover's Lullaby
TTITLE15=The Old Rugged Cross
TTITLE16=The Last Yodel
TTITLE17=Yodel Train
TTITLE18=The Cat Came Back
TTITLE19=My Happy Cowboy Life
TTITLE20=My Calgary Home
TTITLE21=Stampede The Outlaw
TTITLE22=Yodel Demostration
TTITLE23=Mocking Bird Hill
TTITLE24=Old Chisolm Trail
TTITLE25=Cactus Sue
TTITLE26=The Trail Rider's Call
TTITLE27=The Swiss Yodelers
EXTD=Bob Dunham
EXTT0=
EXTT1=
EXTT2=
EXTT3=
EXTT4=
EXTT5=
EXTT6=
EXTT7=
EXTT8=
EXTT9=
EXTT10=
EXTT11=
EXTT12=
EXTT13=
EXTT14=
EXTT15=
EXTT16=
EXTT17=
EXTT18=
EXTT19=
EXTT20=
EXTT21=
EXTT22=
EXTT23=
EXTT24=
EXTT25=
EXTT26=
EXTT27=
PLAYORDER=
